<svg version="1" xmlns="http://www.w3.org/2000/svg" width="933.333" height="933.333" viewBox="0 0 700.000000 700.000000"><path d="M344.9 7.2c-2.3 4-4.9 8.4-5.7 9.8-.9 1.4-4.1 7-7.2 12.5-3.1 5.5-10.8 18.8-17 29.5-6.2 10.7-12.4 21.5-13.8 24-1.4 2.5-5.7 9.9-9.5 16.5-3.9 6.6-7.5 12.9-8.1 14-1.8 3.1-13.9 24.3-16 27.8-1 1.8-8.9 15.6-17.6 30.7-8.7 15.1-16.6 28.9-17.6 30.7-4.9 8.5-31.2 54.3-33.7 58.7-1.6 2.8-3.9 6.8-5.3 8.8-1.3 2.1-2.4 4-2.4 4.2 0 .2-2 3.9-4.5 8-2.5 4.2-4.5 8.1-4.5 8.6 0 .6-.4 1-1 1-.5 0-1 .4-1 .9s-11.7 21.3-26.1 46.2c-14.4 25-27.1 47.2-28.4 49.4-1.2 2.2-9.1 15.8-17.4 30.3-8.3 14.4-15.1 26.4-15.1 26.5 0 .2 22.1.3 49.1.3l49-.1 6.1-10.5c3.3-5.8 6.6-11.4 7.2-12.5 3.1-5.4 14.3-25 15.9-27.7 5.3-9.1 17.7-30.8 17.7-31 0-.2-3.6-.3-8-.2-7.8.2-7.9.2-6.8-2 1.1-2.2 37.1-64.8 53.1-92.6 4.9-8.5 11.9-20.8 15.6-27.2 3.6-6.4 7.3-11.8 8.1-12 .8-.2 27.7-.3 59.8-.2l58.2.1 2.6 2.4c5 4.7 3.9 7.5-19.1 47.4-11.4 19.8-24.2 42-28.4 49.3-10.8 19-11.3 19.7-14.3 23.4-1.4 1.8-4.9 4.6-7.7 6.3-4.5 2.7-5.8 4.4-12.8 16.5-4.3 7.4-8.3 14.4-8.9 15.5-.6 1.1-7.9 13.9-16.3 28.4-8.3 14.5-15.1 26.5-15.1 26.6 0 .6 38.4-.3 41.5-.9 22.9-4.8 49.8-20.2 66.9-38.5 2.3-2.4 4.6-4.9 5.1-5.5 4.1-4.2 11.1-15.2 22.5-35.1 7.3-12.7 14.9-25.9 17-29.5 6.8-11.6 45.2-78.3 48.3-84 1.7-3 4.7-8.2 6.7-11.5 7.5-12.3 13.8-26.2 14.5-32 .6-4.8.3-6.6-2.2-12.9l-3-7.4 2.3-1.1c5.5-2.5 19.9-12.8 25.2-18 3.2-3.2 7.9-8.6 10.4-12.2 3.6-5.1 19.8-32.5 37.3-63.4 1.3-2.2 6.3-11 11.2-19.5 10.7-18.7 12.9-23.3 15-31.3 5.3-20.8-2.3-35.5-21.6-41.3C591.3.3 569.6.1 469.8 0H349.1l-4.2 7.2zm161.7 67.3c4.5.8 6.8 4.4 6.1 9.1-.3 1.9-3.5 8.6-7 14.7-3.6 6.2-7.5 13.1-8.7 15.2-12.3 22.1-16.4 26.9-25.8 31.3l-5.7 2.6-59.2.1c-32.6 0-59.3-.3-59.3-.7 0-.5 6.8-12.6 15.1-27.1 8.3-14.4 17.6-30.6 20.7-35.9 3.1-5.4 6.3-9.9 7.1-10 3-.6 113.5 0 116.7.7z"/><path d="M368.7 254.6c-.1.1-2.6.4-5.4.8-7.1.8-19 4.8-29.3 9.8-12.8 6.1-25.3 15.2-36.5 26.3-10.5 10.4-16.2 18.4-27.7 38.5-3.6 6.4-7.5 13.1-8.6 15-4 7.2-17.7 31-25 43.5-13.5 23.4-30.3 52.7-41.4 72-5.9 10.4-11.2 19.7-11.7 20.5-.5.8-5 8.5-9.9 17s-16.7 29.1-26.3 45.7c-9.6 16.6-17.9 31-18.4 32-3.9 6.9-13.2 23-14 24.4-.5.9-2.6 4.4-4.5 7.9s-3.9 7-4.5 7.9c-1.8 2.9-10.1 17.5-13.4 23.4-11.6 21-11.9 39.6-.9 50.8 2.9 2.9 6.8 5.6 10.5 7l5.8 2.4 93.5.3c101.7.3 102.4.3 118.2-5.4 22.9-8.3 44.1-23.6 60.5-43.9 4-4.9 23.6-38.3 60.1-102.5 1.1-1.9 6.3-11.1 11.6-20.3 5.4-9.3 9.9-17.4 10.2-18 .3-.9-9.4-1.2-40.3-1.2l-40.6.1-2.2 3.4c-1.2 1.9-3.3 5.5-4.7 8-1.4 2.5-9.3 16.2-17.5 30.5-8.3 14.4-16.1 28.1-17.5 30.5-13.7 24.2-17.1 28.6-26.2 33.7l-5.1 2.8-53 .3c-29.1.1-54 0-55.2-.3-6.3-1.5-7.7-8.6-3.1-16.6 1.3-2.4 3.4-6.1 4.6-8.2 1.2-2 3.2-5.4 4.3-7.5 1.2-2 9.9-17.2 19.4-33.7 30.6-53.1 63.2-109.9 65.2-113.5 1.1-1.9 7.6-13.2 14.5-25 6.8-11.8 17.8-30.9 24.3-42.3 12.5-21.7 15.1-25.2 22.3-29.8 2.6-1.6 5.7-5 7.6-8.1 5.2-8.5 43.4-75.2 44.1-77 .6-1.4-1.1-1.6-16.4-1.5-9.4 0-17.2.1-17.4.3z"/><path d="M501.9 268.7c-4.6 8.1-9.7 17-11.2 19.7-1.6 2.8-4.3 7.6-6.1 10.6-1.8 3-7.2 12.3-12 20.7-7.9 14-9.9 18.2-7.8 16.9 1.4-.8 7.2 3.2 7.3 5.1.5 5.9-1.4 9.9-20.3 42.8-11 19.2-21 36.6-22.1 38.5-1.1 1.9-4.4 7.6-7.3 12.7-3 5-5.4 9.3-5.4 9.5 0 .2 18.4.4 40.8.4l40.8.1 9-15.5c4.9-8.5 10.1-17.5 11.6-20.1 1.5-2.5 3.3-5.7 4.1-7.1.7-1.4 11.2-19.6 23.2-40.5 29.3-51 30.3-52.7 32.1-57.7 7.5-20.4 4.2-36.6-8.9-44.7-7.9-4.9-10.9-5.3-35.8-5.7l-23.5-.3-8.5 14.6z"/></svg>